<?xml version="1.0" encoding="UTF-8" standalone="no"?>
<svg
   viewBox="0 0 500 500"
   width="100%"
   height="100%"
   version="1.1"
   id="svg85"
   sodipodi:docname="svgviewer-output (1).svg"
   inkscape:version="1.2.2 (b0a8486541, 2022-12-01)"
   xmlns:inkscape="http://www.inkscape.org/namespaces/inkscape"
   xmlns:sodipodi="http://sodipodi.sourceforge.net/DTD/sodipodi-0.dtd"
   xmlns="http://www.w3.org/2000/svg"
   xmlns:svg="http://www.w3.org/2000/svg"><sodipodi:namedview
   id="namedview87"
   pagecolor="#ffffff"
   bordercolor="#666666"
   borderopacity="1.0"
   inkscape:showpageshadow="2"
   inkscape:pageopacity="0.0"
   inkscape:pagecheckerboard="0"
   inkscape:deskcolor="#d1d1d1"
   showgrid="false"
   inkscape:zoom="1.474"
   inkscape:cx="250"
   inkscape:cy="249.66079"
   inkscape:window-width="1964"
   inkscape:window-height="1121"
   inkscape:window-x="0"
   inkscape:window-y="0"
   inkscape:window-maximized="1"
   inkscape:current-layer="svg85" />


   <style
   id="style2">
    text { font-family: 'Inter', sans-serif; }
  </style>

  
  <defs
   id="defs7">
    <clipPath
   id="inner-boundary">
      <circle
   cx="250"
   cy="250"
   r="215"
   id="circle4" />

    </clipPath>

  </defs>


  <circle
   cx="250"
   cy="250"
   r="230"
   fill="#fdfdfd"
   stroke="#2c3e50"
   stroke-width="12"
   stroke-linecap="round"
   id="circle9" />

  <circle
   cx="248"
   cy="252"
   r="215"
   fill="none"
   stroke="#3498db"
   stroke-width="4"
   opacity="0.6"
   id="circle11" />
<g
   clip-path="url(#inner-boundary)"
   id="g51">
    <g
   transform="translate(0,-50)"
   id="g49">    
    <g
   fill="none"
   stroke="#85c1e9"
   stroke-width="3"
   stroke-linecap="round"
   opacity="0.35"
   id="g33">
      <path
   d="M 0 250 C 150 50, 300 450, 500 200"
   id="path13" />

      <path
   d="M 0 270 C 150 70, 300 470, 500 220"
   id="path15" />

      <path
   d="M 0 290 C 150 90, 300 490, 500 240"
   id="path17" />

      <path
   d="M 0 310 C 150 110, 300 510, 500 260"
   id="path19" />

      <path
   d="M 0 330 C 150 130, 300 530, 500 280"
   id="path21" />

      
      <path
   d="M 0 150 C 200 350, 350 50, 500 300"
   id="path23" />

      <path
   d="M 0 170 C 200 370, 350 70, 500 320"
   id="path25" />

      <path
   d="M 0 190 C 200 390, 350 90, 500 340"
   id="path27" />

      
      <path
   d="M -50 400 C 150 200, 350 400, 550 100"
   id="path29" />

      <path
   d="M -50 420 C 150 220, 350 420, 550 120"
   id="path31" />

    </g>


    <g
   font-size="40"
   fill="#2980b9"
   font-weight="bold"
   opacity="0.8"
   id="g47">
      <text
   x="80"
   y="230"
   transform="rotate(-15 70 220)"
   id="text35">𝄞</text>

      <text
   x="140"
   y="260"
   transform="rotate(10 130 120)"
   id="text37">♭</text>

      <text
   x="110"
   y="330"
   transform="rotate(-20 110 300)"
   id="text39">♪</text>

      <text
   x="400"
   y="280"
   transform="rotate(-10 400 280)"
   id="text41">♫</text>

      <text
   x="450"
   y="300"
   transform="rotate(15 350 100)"
   id="text43">♭</text>

      <text
   x="360"
   y="240"
   transform="rotate(-5 310 260)"
   id="text45">♯</text>

    </g>

  </g>
</g>

  
<g
   transform="matrix(1.5376922,0,0,1.5376922,-135.10148,-66.631252)"
   id="g81">
  <path
   d="m 210,100 h 80 l 20,210 H 190 Z"
   fill="#2c3e50"
   stroke="#1a252f"
   stroke-width="5"
   stroke-linejoin="round"
   id="path53" />


  <g
   stroke="#ecf0f1"
   stroke-width="3"
   stroke-linecap="round"
   id="g61">
    <line
   x1="206"
   y1="150"
   x2="294"
   y2="150"
   id="line55" />

    <line
   x1="201"
   y1="205"
   x2="299"
   y2="205"
   id="line57" />

    <line
   x1="196"
   y1="260"
   x2="304"
   y2="260"
   id="line59" />

  </g>


  <g
   fill="none"
   stroke="#bdc3c7"
   stroke-width="2"
   stroke-linecap="round"
   id="g73">
    <path
   d="m 218,100 q -6,105 -14,210"
   id="path63" />

    <path
   d="m 233,100 q -3,105 -8,210"
   id="path65" />

    <path
   d="m 248,100 q 0,105 0,210"
   id="path67" />

    <path
   d="m 263,100 q 3,105 8,210"
   id="path69" />

    <path
   d="m 278,100 q 6,105 15,210"
   id="path71" />

  </g>


  <circle
   cx="228"
   cy="180"
   r="8"
   fill="#3498db"
   id="circle75" />

  <circle
   cx="248"
   cy="235"
   r="8"
   fill="#3498db"
   id="circle77" />

  <circle
   cx="270"
   cy="235"
   r="8"
   fill="#3498db"
   id="circle79" />
</g>

  
  </svg>
