<svg xmlns="http://www.w3.org/2000/svg" viewBox="0 0 500 500" width="100%" height="100%">

   <style>
    text { font-family: 'Inter', sans-serif; }
  </style>
  
  <defs>
    <clipPath id="inner-boundary">
      <circle cx="250" cy="250" r="215" />
    </clipPath>
  </defs>

  <circle cx="250" cy="250" r="230" fill="#fdfdfd" stroke="#2c3e50" stroke-width="12" stroke-linecap="round" />
  <circle cx="248" cy="252" r="215" fill="none" stroke="#3498db" stroke-width="4" opacity="0.6" />
<g clip-path="url(#inner-boundary)">
    <g transform="translate(0,-50)">    
    <g fill="none" stroke="#85c1e9" stroke-width="3" stroke-linecap="round" opacity="0.35">
      <path d="M 0 250 C 150 50, 300 450, 500 200" />
      <path d="M 0 270 C 150 70, 300 470, 500 220" />
      <path d="M 0 290 C 150 90, 300 490, 500 240" />
      <path d="M 0 310 C 150 110, 300 510, 500 260" />
      <path d="M 0 330 C 150 130, 300 530, 500 280" />
      
      <path d="M 0 150 C 200 350, 350 50, 500 300" />
      <path d="M 0 170 C 200 370, 350 70, 500 320" />
      <path d="M 0 190 C 200 390, 350 90, 500 340" />
      
      <path d="M -50 400 C 150 200, 350 400, 550 100" />
      <path d="M -50 420 C 150 220, 350 420, 550 120" />
    </g>

    <g font-size="40" fill="#2980b9" font-weight="bold" opacity="0.8">
      <text x="80" y="230" transform="rotate(-15 70 220)">𝄞</text>
      <text x="140" y="260" transform="rotate(10 130 120)">♭</text>
      <text x="110" y="330" transform="rotate(-20 110 300)">♪</text>
      <text x="400" y="280" transform="rotate(-10 400 280)">♫</text>
      <text x="450" y="300" transform="rotate(15 350 100)">♭</text>
      <text x="360" y="240" transform="rotate(-5 310 260)">♯</text>
    </g>
  </g>
</g>
  
<g transform="translate(0,-10)">
  <path d="M 210 100 L 290 100 L 310 310 L 190 310 Z" fill="#2c3e50" stroke="#1a252f" stroke-width="5" stroke-linejoin="round" />

  <g stroke="#ecf0f1" stroke-width="3" stroke-linecap="round">
    <line x1="206" y1="150" x2="294" y2="150" />
    <line x1="201" y1="205" x2="299" y2="205" />
    <line x1="196" y1="260" x2="304" y2="260" />
  </g>

  <g fill="none" stroke="#bdc3c7" stroke-width="2" stroke-linecap="round">
    <path d="M 218 100 Q 212 205 204 310" />
    <path d="M 233 100 Q 230 205 225 310" />
    <path d="M 248 100 Q 248 205 248 310" />
    <path d="M 263 100 Q 266 205 271 310" />
    <path d="M 278 100 Q 284 205 293 310" />
  </g>

  <circle cx="228" cy="180" r="8" fill="#3498db" />
  <circle cx="248" cy="235" r="8" fill="#3498db" />
  <circle cx="270" cy="235" r="8" fill="#3498db" />
</g>
  
  <text x="250" y="380" font-size="90" font-weight="bold" text-anchor="middle" fill="#2c3e50">acorde</text>
  
</svg>